name ./resultDataOpenSim/trcMotMarkerGrf/sub09/grf-04-04.mot
datacolumns 19
datarows 27
range 1.48800000 1.59200000
endheader

                time	     ground_force_vx	     ground_force_vy	     ground_force_vz	     ground_force_px	     ground_force_py	     ground_force_pz	   l_ground_force_vx	   l_ground_force_vy	   l_ground_force_vz	   l_ground_force_px	   l_ground_force_py	   l_ground_force_pz	     ground_torque_x	     ground_torque_y	     ground_torque_z	   l_ground_torque_x	   l_ground_torque_y	   l_ground_torque_z	
          1.48800000	        -30.38663155	        439.47588182	        -11.35216554	          0.99554762	          0.00000000	          0.11836361	          0.00000000	          0.00000000	          0.00000000	          0.00000000	          0.00000000	          0.00000000	          0.00000000	          2.30093453	          0.00000000	          0.00000000	          0.00000000	          0.00000000	
          1.49200000	        -30.02876433	        438.76483989	        -12.08677901	          0.99665208	          0.00000000	          0.11838643	          0.00000000	          0.00000000	          0.00000000	          0.00000000	          0.00000000	          0.00000000	          0.00000000	          2.29956136	          0.00000000	          0.00000000	          0.00000000	          0.00000000	
          1.49600000	        -28.18364121	        438.28844904	        -13.71881354	          0.99746166	          0.00000000	          0.11845905	          0.00000000	          0.00000000	          0.00000000	          0.00000000	          0.00000000	          0.00000000	          0.00000000	          2.17936615	          0.00000000	          0.00000000	          0.00000000	          0.00000000	
          1.50000000	        -25.09835712	        438.03203548	        -15.82046319	          0.99800072	          0.00000000	          0.11856778	          0.00000000	          0.00000000	          0.00000000	          0.00000000	          0.00000000	          0.00000000	          0.00000000	          1.97651536	          0.00000000	          0.00000000	          0.00000000	          0.00000000	
          1.50400000	        -21.37148816	        438.01000903	        -17.89539438	          0.99835405	          0.00000000	          0.11867305	          0.00000000	          0.00000000	          0.00000000	          0.00000000	          0.00000000	          0.00000000	          0.00000000	          1.74798442	          0.00000000	          0.00000000	          0.00000000	          0.00000000	
          1.50800000	        -17.77681171	        438.25169114	        -19.46923424	          0.99867478	          0.00000000	          0.11872266	          0.00000000	          0.00000000	          0.00000000	          0.00000000	          0.00000000	          0.00000000	          0.00000000	          1.55739168	          0.00000000	          0.00000000	          0.00000000	          0.00000000	
          1.51200000	        -15.02576804	        438.78274917	        -20.18151733	          0.99909685	          0.00000000	          0.11867734	          0.00000000	          0.00000000	          0.00000000	          0.00000000	          0.00000000	          0.00000000	          0.00000000	          1.45953832	          0.00000000	          0.00000000	          0.00000000	          0.00000000	
          1.51600000	        -13.55395440	        439.62950220	        -19.84816872	          0.99968862	          0.00000000	          0.11851989	          0.00000000	          0.00000000	          0.00000000	          0.00000000	          0.00000000	          0.00000000	          0.00000000	          1.48798885	          0.00000000	          0.00000000	          0.00000000	          0.00000000	
          1.52000000	        -13.41055751	        440.82100957	        -18.47673397	          1.00043342	          0.00000000	          0.11825073	          0.00000000	          0.00000000	          0.00000000	          0.00000000	          0.00000000	          0.00000000	          0.00000000	          1.64857276	          0.00000000	          0.00000000	          0.00000000	          0.00000000	
          1.52400000	        -14.27000480	        442.36784797	        -16.24482868	          1.00126586	          0.00000000	          0.11789903	          0.00000000	          0.00000000	          0.00000000	          0.00000000	          0.00000000	          0.00000000	          0.00000000	          1.91963113	          0.00000000	          0.00000000	          0.00000000	          0.00000000	
          1.52800000	        -15.53704610	        444.25508192	        -13.46078858	          1.00210656	          0.00000000	          0.11749769	          0.00000000	          0.00000000	          0.00000000	          0.00000000	          0.00000000	          0.00000000	          0.00000000	          2.25813528	          0.00000000	          0.00000000	          0.00000000	          0.00000000	
          1.53200000	        -16.51208421	        446.46005314	        -10.51672488	          1.00286588	          0.00000000	          0.11708413	          0.00000000	          0.00000000	          0.00000000	          0.00000000	          0.00000000	          0.00000000	          0.00000000	          2.60983814	          0.00000000	          0.00000000	          0.00000000	          0.00000000	
          1.53600000	        -16.57971856	        448.96083267	         -7.83144841	          1.00345656	          0.00000000	          0.11669710	          0.00000000	          0.00000000	          0.00000000	          0.00000000	          0.00000000	          0.00000000	          0.00000000	          2.92125013	          0.00000000	          0.00000000	          0.00000000	          0.00000000	
          1.54000000	        -15.36988055	        451.73739700	         -5.78556991	          1.00383043	          0.00000000	          0.11637009	          0.00000000	          0.00000000	          0.00000000	          0.00000000	          0.00000000	          0.00000000	          0.00000000	          3.15111014	          0.00000000	          0.00000000	          0.00000000	          0.00000000	
          1.54400000	        -12.84425897	        454.78648605	         -4.66033037	          1.00397892	          0.00000000	          0.11612493	          0.00000000	          0.00000000	          0.00000000	          0.00000000	          0.00000000	          0.00000000	          0.00000000	          3.27899004	          0.00000000	          0.00000000	          0.00000000	          0.00000000	
          1.54800000	         -9.28720378	        458.13202085	         -4.58662026	          1.00393908	          0.00000000	          0.11596029	          0.00000000	          0.00000000	          0.00000000	          0.00000000	          0.00000000	          0.00000000	          0.00000000	          3.30896621	          0.00000000	          0.00000000	          0.00000000	          0.00000000	
          1.55200000	         -5.21411196	        461.81094520	         -5.51751920	          1.00379335	          0.00000000	          0.11586084	          0.00000000	          0.00000000	          0.00000000	          0.00000000	          0.00000000	          0.00000000	          0.00000000	          3.26726027	          0.00000000	          0.00000000	          0.00000000	          0.00000000	
          1.55600000	         -1.22558437	        465.85794071	         -7.23830324	          1.00364009	          0.00000000	          0.11581062	          0.00000000	          0.00000000	          0.00000000	          0.00000000	          0.00000000	          0.00000000	          0.00000000	          3.19439515	          0.00000000	          0.00000000	          0.00000000	          0.00000000	
          1.56000000	          2.15788643	        470.30825930	         -9.41170067	          1.00356510	          0.00000000	          0.11579176	          0.00000000	          0.00000000	          0.00000000	          0.00000000	          0.00000000	          0.00000000	          0.00000000	          3.13416862	          0.00000000	          0.00000000	          0.00000000	          0.00000000	
          1.56400000	          4.63702524	        475.19757522	        -11.64551863	          1.00361737	          0.00000000	          0.11578449	          0.00000000	          0.00000000	          0.00000000	          0.00000000	          0.00000000	          0.00000000	          0.00000000	          3.12278265	          0.00000000	          0.00000000	          0.00000000	          0.00000000	
          1.56800000	          6.21320534	        480.53913080	        -13.56255826	          1.00379243	          0.00000000	          0.11577233	          0.00000000	          0.00000000	          0.00000000	          0.00000000	          0.00000000	          0.00000000	          0.00000000	          3.18126069	          0.00000000	          0.00000000	          0.00000000	          0.00000000	
          1.57200000	          7.18711023	        486.29806829	        -14.85970703	          1.00404565	          0.00000000	          0.11574375	          0.00000000	          0.00000000	          0.00000000	          0.00000000	          0.00000000	          0.00000000	          0.00000000	          3.31291150	          0.00000000	          0.00000000	          0.00000000	          0.00000000	
          1.57600000	          8.07549183	        492.39893218	        -15.35664523	          1.00430678	          0.00000000	          0.11569380	          0.00000000	          0.00000000	          0.00000000	          0.00000000	          0.00000000	          0.00000000	          0.00000000	          3.50568738	          0.00000000	          0.00000000	          0.00000000	          0.00000000	
          1.58000000	          9.46185419	        498.76328979	        -15.02630036	          1.00450266	          0.00000000	          0.11562387	          0.00000000	          0.00000000	          0.00000000	          0.00000000	          0.00000000	          0.00000000	          0.00000000	          3.73772542	          0.00000000	          0.00000000	          0.00000000	          0.00000000	
          1.58400000	         11.82216995	        505.33780905	        -13.99252924	          1.00458488	          0.00000000	          0.11554039	          0.00000000	          0.00000000	          0.00000000	          0.00000000	          0.00000000	          0.00000000	          0.00000000	          3.98380619	          0.00000000	          0.00000000	          0.00000000	          0.00000000	
          1.58800000	         15.38843948	        512.09370287	        -12.50043942	          1.00452517	          0.00000000	          0.11544896	          0.00000000	          0.00000000	          0.00000000	          0.00000000	          0.00000000	          0.00000000	          0.00000000	          4.22096872	          0.00000000	          0.00000000	          0.00000000	          0.00000000	
          1.59200000	         20.09651300	        519.01742053	        -10.87464518	          1.00432719	          0.00000000	          0.11535320	          0.00000000	          0.00000000	          0.00000000	          0.00000000	          0.00000000	          0.00000000	          0.00000000	          4.43253040	          0.00000000	          0.00000000	          0.00000000	          0.00000000	
